<svg xmlns="http://www.w3.org/2000/svg" viewBox="0 0 800 800" width="800" height="800" role="img" aria-label="Illustration of a black crocodile grain leather watch strap. Demo artwork.">
  <defs>
    <linearGradient id="bg-strap-croc-black" x1="0" y1="0" x2="0.65" y2="1">
      <stop offset="0" stop-color="#f4f1ee"/>
      <stop offset="1" stop-color="#ddd5cd"/>
    </linearGradient>
    <radialGradient id="pool-strap-croc-black" cx="0.38" cy="0.32" r="0.72">
      <stop offset="0" stop-color="#ffffff" stop-opacity="0.85"/>
      <stop offset="1" stop-color="#ffffff" stop-opacity="0"/>
    </radialGradient>
    <radialGradient id="shadow-strap-croc-black" cx="0.5" cy="0.5" r="0.5">
      <stop offset="0" stop-color="#2b2622" stop-opacity="0.34"/>
      <stop offset="1" stop-color="#2b2622" stop-opacity="0"/>
    </radialGradient>
    <pattern id="weave-strap-croc-black" width="26" height="26" patternUnits="userSpaceOnUse" patternTransform="rotate(38)">
      <line x1="0" y1="0" x2="0" y2="26" stroke="#2b2622" stroke-opacity="0.045" stroke-width="1"/>
    </pattern>
  </defs>
  <rect width="800" height="800" fill="url(#bg-strap-croc-black)"/>
  <rect width="800" height="800" fill="url(#weave-strap-croc-black)"/>
  <rect width="800" height="800" fill="url(#pool-strap-croc-black)"/>
  <rect x="28" y="28" width="744" height="744" rx="18" fill="none" stroke="#2b2622" stroke-opacity="0.16"/>
  <ellipse cx="400" cy="605" rx="230" ry="46" fill="url(#shadow-strap-croc-black)"/>
  <g transform="translate(400 390)">
<defs><clipPath id="strapclip"><path d="M-92 -300 L92 -300 L78 -40 L-78 -40 Z"/><path d="M-78 40 L78 40 L58 320 L-58 320 Z"/></clipPath></defs>
<polygon points="-92.0,-300.0 92.0,-300.0 78.0,-40.0 -78.0,-40.0" fill="#37312d"/>
<polygon points="-92.0,-300.0 92.0,-300.0 78.0,-40.0 -78.0,-40.0" fill="none" stroke="#1a1614" stroke-opacity="0.55" stroke-width="3.5"/>
<polygon points="-78.0,40.0 78.0,40.0 58.0,320.0 -58.0,320.0" fill="#37312d"/>
<polygon points="-78.0,40.0 78.0,40.0 58.0,320.0 -58.0,320.0" fill="none" stroke="#1a1614" stroke-opacity="0.55" stroke-width="3.5"/>
<g clip-path="url(#strapclip)"><rect x="-157" y="-310" width="38" height="34" rx="9" fill="#6d635b" fill-opacity="0.1" stroke="#1a1614" stroke-opacity="0.35" stroke-width="2"/><rect x="-111" y="-320" width="38" height="34" rx="9" fill="#6d635b" fill-opacity="0.1" stroke="#1a1614" stroke-opacity="0.35" stroke-width="2"/><rect x="-65" y="-310" width="38" height="34" rx="9" fill="#6d635b" fill-opacity="0.1" stroke="#1a1614" stroke-opacity="0.35" stroke-width="2"/><rect x="-19" y="-320" width="38" height="34" rx="9" fill="#6d635b" fill-opacity="0.1" stroke="#1a1614" stroke-opacity="0.35" stroke-width="2"/><rect x="27" y="-310" width="38" height="34" rx="9" fill="#6d635b" fill-opacity="0.1" stroke="#1a1614" stroke-opacity="0.35" stroke-width="2"/><rect x="73" y="-320" width="38" height="34" rx="9" fill="#6d635b" fill-opacity="0.1" stroke="#1a1614" stroke-opacity="0.35" stroke-width="2"/><rect x="119" y="-310" width="38" height="34" rx="9" fill="#6d635b" fill-opacity="0.1" stroke="#1a1614" stroke-opacity="0.35" stroke-width="2"/><rect x="-157" y="-268" width="38" height="34" rx="9" fill="#6d635b" fill-opacity="0.1" stroke="#1a1614" stroke-opacity="0.35" stroke-width="2"/><rect x="-111" y="-278" width="38" height="34" rx="9" fill="#6d635b" fill-opacity="0.1" stroke="#1a1614" stroke-opacity="0.35" stroke-width="2"/><rect x="-65" y="-268" width="38" height="34" rx="9" fill="#6d635b" fill-opacity="0.1" stroke="#1a1614" stroke-opacity="0.35" stroke-width="2"/><rect x="-19" y="-278" width="38" height="34" rx="9" fill="#6d635b" fill-opacity="0.1" stroke="#1a1614" stroke-opacity="0.35" stroke-width="2"/><rect x="27" y="-268" width="38" height="34" rx="9" fill="#6d635b" fill-opacity="0.1" stroke="#1a1614" stroke-opacity="0.35" stroke-width="2"/><rect x="73" y="-278" width="38" height="34" rx="9" fill="#6d635b" fill-opacity="0.1" stroke="#1a1614" stroke-opacity="0.35" stroke-width="2"/><rect x="119" y="-268" width="38" height="34" rx="9" fill="#6d635b" fill-opacity="0.1" stroke="#1a1614" stroke-opacity="0.35" stroke-width="2"/><rect x="-157" y="-226" width="38" height="34" rx="9" fill="#6d635b" fill-opacity="0.1" stroke="#1a1614" stroke-opacity="0.35" stroke-width="2"/><rect x="-111" y="-236" width="38" height="34" rx="9" fill="#6d635b" fill-opacity="0.1" stroke="#1a1614" stroke-opacity="0.35" stroke-width="2"/><rect x="-65" y="-226" width="38" height="34" rx="9" fill="#6d635b" fill-opacity="0.1" stroke="#1a1614" stroke-opacity="0.35" stroke-width="2"/><rect x="-19" y="-236" width="38" height="34" rx="9" fill="#6d635b" fill-opacity="0.1" stroke="#1a1614" stroke-opacity="0.35" stroke-width="2"/><rect x="27" y="-226" width="38" height="34" rx="9" fill="#6d635b" fill-opacity="0.1" stroke="#1a1614" stroke-opacity="0.35" stroke-width="2"/><rect x="73" y="-236" width="38" height="34" rx="9" fill="#6d635b" fill-opacity="0.1" stroke="#1a1614" stroke-opacity="0.35" stroke-width="2"/><rect x="119" y="-226" width="38" height="34" rx="9" fill="#6d635b" fill-opacity="0.1" stroke="#1a1614" stroke-opacity="0.35" stroke-width="2"/><rect x="-157" y="-184" width="38" height="34" rx="9" fill="#6d635b" fill-opacity="0.1" stroke="#1a1614" stroke-opacity="0.35" stroke-width="2"/><rect x="-111" y="-194" width="38" height="34" rx="9" fill="#6d635b" fill-opacity="0.1" stroke="#1a1614" stroke-opacity="0.35" stroke-width="2"/><rect x="-65" y="-184" width="38" height="34" rx="9" fill="#6d635b" fill-opacity="0.1" stroke="#1a1614" stroke-opacity="0.35" stroke-width="2"/><rect x="-19" y="-194" width="38" height="34" rx="9" fill="#6d635b" fill-opacity="0.1" stroke="#1a1614" stroke-opacity="0.35" stroke-width="2"/><rect x="27" y="-184" width="38" height="34" rx="9" fill="#6d635b" fill-opacity="0.1" stroke="#1a1614" stroke-opacity="0.35" stroke-width="2"/><rect x="73" y="-194" width="38" height="34" rx="9" fill="#6d635b" fill-opacity="0.1" stroke="#1a1614" stroke-opacity="0.35" stroke-width="2"/><rect x="119" y="-184" width="38" height="34" rx="9" fill="#6d635b" fill-opacity="0.1" stroke="#1a1614" stroke-opacity="0.35" stroke-width="2"/><rect x="-157" y="-142" width="38" height="34" rx="9" fill="#6d635b" fill-opacity="0.1" stroke="#1a1614" stroke-opacity="0.35" stroke-width="2"/><rect x="-111" y="-152" width="38" height="34" rx="9" fill="#6d635b" fill-opacity="0.1" stroke="#1a1614" stroke-opacity="0.35" stroke-width="2"/><rect x="-65" y="-142" width="38" height="34" rx="9" fill="#6d635b" fill-opacity="0.1" stroke="#1a1614" stroke-opacity="0.35" stroke-width="2"/><rect x="-19" y="-152" width="38" height="34" rx="9" fill="#6d635b" fill-opacity="0.1" stroke="#1a1614" stroke-opacity="0.35" stroke-width="2"/><rect x="27" y="-142" width="38" height="34" rx="9" fill="#6d635b" fill-opacity="0.1" stroke="#1a1614" stroke-opacity="0.35" stroke-width="2"/><rect x="73" y="-152" width="38" height="34" rx="9" fill="#6d635b" fill-opacity="0.1" stroke="#1a1614" stroke-opacity="0.35" stroke-width="2"/><rect x="119" y="-142" width="38" height="34" rx="9" fill="#6d635b" fill-opacity="0.1" stroke="#1a1614" stroke-opacity="0.35" stroke-width="2"/><rect x="-157" y="-100" width="38" height="34" rx="9" fill="#6d635b" fill-opacity="0.1" stroke="#1a1614" stroke-opacity="0.35" stroke-width="2"/><rect x="-111" y="-110" width="38" height="34" rx="9" fill="#6d635b" fill-opacity="0.1" stroke="#1a1614" stroke-opacity="0.35" stroke-width="2"/><rect x="-65" y="-100" width="38" height="34" rx="9" fill="#6d635b" fill-opacity="0.1" stroke="#1a1614" stroke-opacity="0.35" stroke-width="2"/><rect x="-19" y="-110" width="38" height="34" rx="9" fill="#6d635b" fill-opacity="0.1" stroke="#1a1614" stroke-opacity="0.35" stroke-width="2"/><rect x="27" y="-100" width="38" height="34" rx="9" fill="#6d635b" fill-opacity="0.1" stroke="#1a1614" stroke-opacity="0.35" stroke-width="2"/><rect x="73" y="-110" width="38" height="34" rx="9" fill="#6d635b" fill-opacity="0.1" stroke="#1a1614" stroke-opacity="0.35" stroke-width="2"/><rect x="119" y="-100" width="38" height="34" rx="9" fill="#6d635b" fill-opacity="0.1" stroke="#1a1614" stroke-opacity="0.35" stroke-width="2"/><rect x="-157" y="-58" width="38" height="34" rx="9" fill="#6d635b" fill-opacity="0.1" stroke="#1a1614" stroke-opacity="0.35" stroke-width="2"/><rect x="-111" y="-68" width="38" height="34" rx="9" fill="#6d635b" fill-opacity="0.1" stroke="#1a1614" stroke-opacity="0.35" stroke-width="2"/><rect x="-65" y="-58" width="38" height="34" rx="9" fill="#6d635b" fill-opacity="0.1" stroke="#1a1614" stroke-opacity="0.35" stroke-width="2"/><rect x="-19" y="-68" width="38" height="34" rx="9" fill="#6d635b" fill-opacity="0.1" stroke="#1a1614" stroke-opacity="0.35" stroke-width="2"/><rect x="27" y="-58" width="38" height="34" rx="9" fill="#6d635b" fill-opacity="0.1" stroke="#1a1614" stroke-opacity="0.35" stroke-width="2"/><rect x="73" y="-68" width="38" height="34" rx="9" fill="#6d635b" fill-opacity="0.1" stroke="#1a1614" stroke-opacity="0.35" stroke-width="2"/><rect x="119" y="-58" width="38" height="34" rx="9" fill="#6d635b" fill-opacity="0.1" stroke="#1a1614" stroke-opacity="0.35" stroke-width="2"/><rect x="-157" y="-16" width="38" height="34" rx="9" fill="#6d635b" fill-opacity="0.1" stroke="#1a1614" stroke-opacity="0.35" stroke-width="2"/><rect x="-111" y="-26" width="38" height="34" rx="9" fill="#6d635b" fill-opacity="0.1" stroke="#1a1614" stroke-opacity="0.35" stroke-width="2"/><rect x="-65" y="-16" width="38" height="34" rx="9" fill="#6d635b" fill-opacity="0.1" stroke="#1a1614" stroke-opacity="0.35" stroke-width="2"/><rect x="-19" y="-26" width="38" height="34" rx="9" fill="#6d635b" fill-opacity="0.1" stroke="#1a1614" stroke-opacity="0.35" stroke-width="2"/><rect x="27" y="-16" width="38" height="34" rx="9" fill="#6d635b" fill-opacity="0.1" stroke="#1a1614" stroke-opacity="0.35" stroke-width="2"/><rect x="73" y="-26" width="38" height="34" rx="9" fill="#6d635b" fill-opacity="0.1" stroke="#1a1614" stroke-opacity="0.35" stroke-width="2"/><rect x="119" y="-16" width="38" height="34" rx="9" fill="#6d635b" fill-opacity="0.1" stroke="#1a1614" stroke-opacity="0.35" stroke-width="2"/><rect x="-157" y="26" width="38" height="34" rx="9" fill="#6d635b" fill-opacity="0.1" stroke="#1a1614" stroke-opacity="0.35" stroke-width="2"/><rect x="-111" y="16" width="38" height="34" rx="9" fill="#6d635b" fill-opacity="0.1" stroke="#1a1614" stroke-opacity="0.35" stroke-width="2"/><rect x="-65" y="26" width="38" height="34" rx="9" fill="#6d635b" fill-opacity="0.1" stroke="#1a1614" stroke-opacity="0.35" stroke-width="2"/><rect x="-19" y="16" width="38" height="34" rx="9" fill="#6d635b" fill-opacity="0.1" stroke="#1a1614" stroke-opacity="0.35" stroke-width="2"/><rect x="27" y="26" width="38" height="34" rx="9" fill="#6d635b" fill-opacity="0.1" stroke="#1a1614" stroke-opacity="0.35" stroke-width="2"/><rect x="73" y="16" width="38" height="34" rx="9" fill="#6d635b" fill-opacity="0.1" stroke="#1a1614" stroke-opacity="0.35" stroke-width="2"/><rect x="119" y="26" width="38" height="34" rx="9" fill="#6d635b" fill-opacity="0.1" stroke="#1a1614" stroke-opacity="0.35" stroke-width="2"/><rect x="-157" y="68" width="38" height="34" rx="9" fill="#6d635b" fill-opacity="0.1" stroke="#1a1614" stroke-opacity="0.35" stroke-width="2"/><rect x="-111" y="58" width="38" height="34" rx="9" fill="#6d635b" fill-opacity="0.1" stroke="#1a1614" stroke-opacity="0.35" stroke-width="2"/><rect x="-65" y="68" width="38" height="34" rx="9" fill="#6d635b" fill-opacity="0.1" stroke="#1a1614" stroke-opacity="0.35" stroke-width="2"/><rect x="-19" y="58" width="38" height="34" rx="9" fill="#6d635b" fill-opacity="0.1" stroke="#1a1614" stroke-opacity="0.35" stroke-width="2"/><rect x="27" y="68" width="38" height="34" rx="9" fill="#6d635b" fill-opacity="0.1" stroke="#1a1614" stroke-opacity="0.35" stroke-width="2"/><rect x="73" y="58" width="38" height="34" rx="9" fill="#6d635b" fill-opacity="0.1" stroke="#1a1614" stroke-opacity="0.35" stroke-width="2"/><rect x="119" y="68" width="38" height="34" rx="9" fill="#6d635b" fill-opacity="0.1" stroke="#1a1614" stroke-opacity="0.35" stroke-width="2"/><rect x="-157" y="110" width="38" height="34" rx="9" fill="#6d635b" fill-opacity="0.1" stroke="#1a1614" stroke-opacity="0.35" stroke-width="2"/><rect x="-111" y="100" width="38" height="34" rx="9" fill="#6d635b" fill-opacity="0.1" stroke="#1a1614" stroke-opacity="0.35" stroke-width="2"/><rect x="-65" y="110" width="38" height="34" rx="9" fill="#6d635b" fill-opacity="0.1" stroke="#1a1614" stroke-opacity="0.35" stroke-width="2"/><rect x="-19" y="100" width="38" height="34" rx="9" fill="#6d635b" fill-opacity="0.1" stroke="#1a1614" stroke-opacity="0.35" stroke-width="2"/><rect x="27" y="110" width="38" height="34" rx="9" fill="#6d635b" fill-opacity="0.1" stroke="#1a1614" stroke-opacity="0.35" stroke-width="2"/><rect x="73" y="100" width="38" height="34" rx="9" fill="#6d635b" fill-opacity="0.1" stroke="#1a1614" stroke-opacity="0.35" stroke-width="2"/><rect x="119" y="110" width="38" height="34" rx="9" fill="#6d635b" fill-opacity="0.1" stroke="#1a1614" stroke-opacity="0.35" stroke-width="2"/><rect x="-157" y="152" width="38" height="34" rx="9" fill="#6d635b" fill-opacity="0.1" stroke="#1a1614" stroke-opacity="0.35" stroke-width="2"/><rect x="-111" y="142" width="38" height="34" rx="9" fill="#6d635b" fill-opacity="0.1" stroke="#1a1614" stroke-opacity="0.35" stroke-width="2"/><rect x="-65" y="152" width="38" height="34" rx="9" fill="#6d635b" fill-opacity="0.1" stroke="#1a1614" stroke-opacity="0.35" stroke-width="2"/><rect x="-19" y="142" width="38" height="34" rx="9" fill="#6d635b" fill-opacity="0.1" stroke="#1a1614" stroke-opacity="0.35" stroke-width="2"/><rect x="27" y="152" width="38" height="34" rx="9" fill="#6d635b" fill-opacity="0.1" stroke="#1a1614" stroke-opacity="0.35" stroke-width="2"/><rect x="73" y="142" width="38" height="34" rx="9" fill="#6d635b" fill-opacity="0.1" stroke="#1a1614" stroke-opacity="0.35" stroke-width="2"/><rect x="119" y="152" width="38" height="34" rx="9" fill="#6d635b" fill-opacity="0.1" stroke="#1a1614" stroke-opacity="0.35" stroke-width="2"/><rect x="-157" y="194" width="38" height="34" rx="9" fill="#6d635b" fill-opacity="0.1" stroke="#1a1614" stroke-opacity="0.35" stroke-width="2"/><rect x="-111" y="184" width="38" height="34" rx="9" fill="#6d635b" fill-opacity="0.1" stroke="#1a1614" stroke-opacity="0.35" stroke-width="2"/><rect x="-65" y="194" width="38" height="34" rx="9" fill="#6d635b" fill-opacity="0.1" stroke="#1a1614" stroke-opacity="0.35" stroke-width="2"/><rect x="-19" y="184" width="38" height="34" rx="9" fill="#6d635b" fill-opacity="0.1" stroke="#1a1614" stroke-opacity="0.35" stroke-width="2"/><rect x="27" y="194" width="38" height="34" rx="9" fill="#6d635b" fill-opacity="0.1" stroke="#1a1614" stroke-opacity="0.35" stroke-width="2"/><rect x="73" y="184" width="38" height="34" rx="9" fill="#6d635b" fill-opacity="0.1" stroke="#1a1614" stroke-opacity="0.35" stroke-width="2"/><rect x="119" y="194" width="38" height="34" rx="9" fill="#6d635b" fill-opacity="0.1" stroke="#1a1614" stroke-opacity="0.35" stroke-width="2"/><rect x="-157" y="236" width="38" height="34" rx="9" fill="#6d635b" fill-opacity="0.1" stroke="#1a1614" stroke-opacity="0.35" stroke-width="2"/><rect x="-111" y="226" width="38" height="34" rx="9" fill="#6d635b" fill-opacity="0.1" stroke="#1a1614" stroke-opacity="0.35" stroke-width="2"/><rect x="-65" y="236" width="38" height="34" rx="9" fill="#6d635b" fill-opacity="0.1" stroke="#1a1614" stroke-opacity="0.35" stroke-width="2"/><rect x="-19" y="226" width="38" height="34" rx="9" fill="#6d635b" fill-opacity="0.1" stroke="#1a1614" stroke-opacity="0.35" stroke-width="2"/><rect x="27" y="236" width="38" height="34" rx="9" fill="#6d635b" fill-opacity="0.1" stroke="#1a1614" stroke-opacity="0.35" stroke-width="2"/><rect x="73" y="226" width="38" height="34" rx="9" fill="#6d635b" fill-opacity="0.1" stroke="#1a1614" stroke-opacity="0.35" stroke-width="2"/><rect x="119" y="236" width="38" height="34" rx="9" fill="#6d635b" fill-opacity="0.1" stroke="#1a1614" stroke-opacity="0.35" stroke-width="2"/><rect x="-157" y="278" width="38" height="34" rx="9" fill="#6d635b" fill-opacity="0.1" stroke="#1a1614" stroke-opacity="0.35" stroke-width="2"/><rect x="-111" y="268" width="38" height="34" rx="9" fill="#6d635b" fill-opacity="0.1" stroke="#1a1614" stroke-opacity="0.35" stroke-width="2"/><rect x="-65" y="278" width="38" height="34" rx="9" fill="#6d635b" fill-opacity="0.1" stroke="#1a1614" stroke-opacity="0.35" stroke-width="2"/><rect x="-19" y="268" width="38" height="34" rx="9" fill="#6d635b" fill-opacity="0.1" stroke="#1a1614" stroke-opacity="0.35" stroke-width="2"/><rect x="27" y="278" width="38" height="34" rx="9" fill="#6d635b" fill-opacity="0.1" stroke="#1a1614" stroke-opacity="0.35" stroke-width="2"/><rect x="73" y="268" width="38" height="34" rx="9" fill="#6d635b" fill-opacity="0.1" stroke="#1a1614" stroke-opacity="0.35" stroke-width="2"/><rect x="119" y="278" width="38" height="34" rx="9" fill="#6d635b" fill-opacity="0.1" stroke="#1a1614" stroke-opacity="0.35" stroke-width="2"/><rect x="-157" y="320" width="38" height="34" rx="9" fill="#6d635b" fill-opacity="0.1" stroke="#1a1614" stroke-opacity="0.35" stroke-width="2"/><rect x="-111" y="310" width="38" height="34" rx="9" fill="#6d635b" fill-opacity="0.1" stroke="#1a1614" stroke-opacity="0.35" stroke-width="2"/><rect x="-65" y="320" width="38" height="34" rx="9" fill="#6d635b" fill-opacity="0.1" stroke="#1a1614" stroke-opacity="0.35" stroke-width="2"/><rect x="-19" y="310" width="38" height="34" rx="9" fill="#6d635b" fill-opacity="0.1" stroke="#1a1614" stroke-opacity="0.35" stroke-width="2"/><rect x="27" y="320" width="38" height="34" rx="9" fill="#6d635b" fill-opacity="0.1" stroke="#1a1614" stroke-opacity="0.35" stroke-width="2"/><rect x="73" y="310" width="38" height="34" rx="9" fill="#6d635b" fill-opacity="0.1" stroke="#1a1614" stroke-opacity="0.35" stroke-width="2"/><rect x="119" y="320" width="38" height="34" rx="9" fill="#6d635b" fill-opacity="0.1" stroke="#1a1614" stroke-opacity="0.35" stroke-width="2"/></g>
<line x1="-66" y1="-290" x2="-66" y2="-276" stroke="#b6b1ad" stroke-opacity="0.85" stroke-width="5" stroke-linecap="round"/><line x1="-66" y1="-264" x2="-66" y2="-250" stroke="#b6b1ad" stroke-opacity="0.85" stroke-width="5" stroke-linecap="round"/><line x1="-66" y1="-238" x2="-66" y2="-224" stroke="#b6b1ad" stroke-opacity="0.85" stroke-width="5" stroke-linecap="round"/><line x1="-66" y1="-212" x2="-66" y2="-198" stroke="#b6b1ad" stroke-opacity="0.85" stroke-width="5" stroke-linecap="round"/><line x1="-66" y1="-186" x2="-66" y2="-172" stroke="#b6b1ad" stroke-opacity="0.85" stroke-width="5" stroke-linecap="round"/><line x1="-66" y1="-160" x2="-66" y2="-146" stroke="#b6b1ad" stroke-opacity="0.85" stroke-width="5" stroke-linecap="round"/><line x1="-66" y1="-134" x2="-66" y2="-120" stroke="#b6b1ad" stroke-opacity="0.85" stroke-width="5" stroke-linecap="round"/><line x1="-66" y1="-108" x2="-66" y2="-94" stroke="#b6b1ad" stroke-opacity="0.85" stroke-width="5" stroke-linecap="round"/><line x1="-66" y1="-82" x2="-66" y2="-68" stroke="#b6b1ad" stroke-opacity="0.85" stroke-width="5" stroke-linecap="round"/><line x1="-66" y1="-56" x2="-66" y2="-42" stroke="#b6b1ad" stroke-opacity="0.85" stroke-width="5" stroke-linecap="round"/>
<line x1="66" y1="-290" x2="66" y2="-276" stroke="#b6b1ad" stroke-opacity="0.85" stroke-width="5" stroke-linecap="round"/><line x1="66" y1="-264" x2="66" y2="-250" stroke="#b6b1ad" stroke-opacity="0.85" stroke-width="5" stroke-linecap="round"/><line x1="66" y1="-238" x2="66" y2="-224" stroke="#b6b1ad" stroke-opacity="0.85" stroke-width="5" stroke-linecap="round"/><line x1="66" y1="-212" x2="66" y2="-198" stroke="#b6b1ad" stroke-opacity="0.85" stroke-width="5" stroke-linecap="round"/><line x1="66" y1="-186" x2="66" y2="-172" stroke="#b6b1ad" stroke-opacity="0.85" stroke-width="5" stroke-linecap="round"/><line x1="66" y1="-160" x2="66" y2="-146" stroke="#b6b1ad" stroke-opacity="0.85" stroke-width="5" stroke-linecap="round"/><line x1="66" y1="-134" x2="66" y2="-120" stroke="#b6b1ad" stroke-opacity="0.85" stroke-width="5" stroke-linecap="round"/><line x1="66" y1="-108" x2="66" y2="-94" stroke="#b6b1ad" stroke-opacity="0.85" stroke-width="5" stroke-linecap="round"/><line x1="66" y1="-82" x2="66" y2="-68" stroke="#b6b1ad" stroke-opacity="0.85" stroke-width="5" stroke-linecap="round"/><line x1="66" y1="-56" x2="66" y2="-42" stroke="#b6b1ad" stroke-opacity="0.85" stroke-width="5" stroke-linecap="round"/>
<line x1="-54" y1="54" x2="-54" y2="68" stroke="#b6b1ad" stroke-opacity="0.85" stroke-width="5" stroke-linecap="round"/><line x1="-54" y1="80" x2="-54" y2="94" stroke="#b6b1ad" stroke-opacity="0.85" stroke-width="5" stroke-linecap="round"/><line x1="-54" y1="106" x2="-54" y2="120" stroke="#b6b1ad" stroke-opacity="0.85" stroke-width="5" stroke-linecap="round"/><line x1="-54" y1="132" x2="-54" y2="146" stroke="#b6b1ad" stroke-opacity="0.85" stroke-width="5" stroke-linecap="round"/><line x1="-54" y1="158" x2="-54" y2="172" stroke="#b6b1ad" stroke-opacity="0.85" stroke-width="5" stroke-linecap="round"/><line x1="-54" y1="184" x2="-54" y2="198" stroke="#b6b1ad" stroke-opacity="0.85" stroke-width="5" stroke-linecap="round"/><line x1="-54" y1="210" x2="-54" y2="224" stroke="#b6b1ad" stroke-opacity="0.85" stroke-width="5" stroke-linecap="round"/><line x1="-54" y1="236" x2="-54" y2="250" stroke="#b6b1ad" stroke-opacity="0.85" stroke-width="5" stroke-linecap="round"/><line x1="-54" y1="262" x2="-54" y2="276" stroke="#b6b1ad" stroke-opacity="0.85" stroke-width="5" stroke-linecap="round"/><line x1="-54" y1="288" x2="-54" y2="302" stroke="#b6b1ad" stroke-opacity="0.85" stroke-width="5" stroke-linecap="round"/>
<line x1="54" y1="54" x2="54" y2="68" stroke="#b6b1ad" stroke-opacity="0.85" stroke-width="5" stroke-linecap="round"/><line x1="54" y1="80" x2="54" y2="94" stroke="#b6b1ad" stroke-opacity="0.85" stroke-width="5" stroke-linecap="round"/><line x1="54" y1="106" x2="54" y2="120" stroke="#b6b1ad" stroke-opacity="0.85" stroke-width="5" stroke-linecap="round"/><line x1="54" y1="132" x2="54" y2="146" stroke="#b6b1ad" stroke-opacity="0.85" stroke-width="5" stroke-linecap="round"/><line x1="54" y1="158" x2="54" y2="172" stroke="#b6b1ad" stroke-opacity="0.85" stroke-width="5" stroke-linecap="round"/><line x1="54" y1="184" x2="54" y2="198" stroke="#b6b1ad" stroke-opacity="0.85" stroke-width="5" stroke-linecap="round"/><line x1="54" y1="210" x2="54" y2="224" stroke="#b6b1ad" stroke-opacity="0.85" stroke-width="5" stroke-linecap="round"/><line x1="54" y1="236" x2="54" y2="250" stroke="#b6b1ad" stroke-opacity="0.85" stroke-width="5" stroke-linecap="round"/><line x1="54" y1="262" x2="54" y2="276" stroke="#b6b1ad" stroke-opacity="0.85" stroke-width="5" stroke-linecap="round"/><line x1="54" y1="288" x2="54" y2="302" stroke="#b6b1ad" stroke-opacity="0.85" stroke-width="5" stroke-linecap="round"/>
<rect x="-104" y="-322" width="208" height="16" rx="8" fill="#afb9c6" stroke="#465468" stroke-opacity="0.5" stroke-width="2.6"/>
<g transform="translate(0 -12)"><rect x="-96" y="-40" width="192" height="80" rx="16" fill="none" stroke="#8d9bad" stroke-width="15"/><rect x="-96" y="-40" width="192" height="80" rx="16" fill="none" stroke="#465468" stroke-opacity="0.45" stroke-width="3"/><line x1="0" y1="-32" x2="0" y2="32" stroke="#8d9bad" stroke-width="11"/><path d="M0 0 L74 -8" stroke="#8d9bad" stroke-width="9" stroke-linecap="round"/></g>
<ellipse cx="0" cy="150" rx="10" ry="12" fill="#1a1614" fill-opacity="0.55"/>
<ellipse cx="0" cy="188" rx="10" ry="12" fill="#1a1614" fill-opacity="0.55"/>
<ellipse cx="0" cy="226" rx="10" ry="12" fill="#1a1614" fill-opacity="0.55"/>
<ellipse cx="0" cy="264" rx="10" ry="12" fill="#1a1614" fill-opacity="0.55"/>
<ellipse cx="0" cy="302" rx="10" ry="12" fill="#1a1614" fill-opacity="0.55"/>
  </g>
  <g transform="translate(738 746)">
    <rect x="-86" y="-20" width="86" height="34" rx="17" fill="#2b2622" fill-opacity="0.1"/>
    <text x="-43" y="3" text-anchor="middle" font-family="Georgia, 'Times New Roman', serif" font-size="15" letter-spacing="2.4" fill="#2b2622" fill-opacity="0.72">DEMO</text>
  </g>
</svg>
