<svg xmlns="http://www.w3.org/2000/svg" viewBox="0 0 800 800" width="800" height="800" role="img" aria-label="Illustration of case back gaskets. Demo artwork.">
  <defs>
    <linearGradient id="bg-watch-gaskets" x1="0" y1="0" x2="0.65" y2="1">
      <stop offset="0" stop-color="#f2f5fa"/>
      <stop offset="1" stop-color="#d5dde8"/>
    </linearGradient>
    <radialGradient id="pool-watch-gaskets" cx="0.38" cy="0.32" r="0.72">
      <stop offset="0" stop-color="#ffffff" stop-opacity="0.85"/>
      <stop offset="1" stop-color="#ffffff" stop-opacity="0"/>
    </radialGradient>
    <radialGradient id="shadow-watch-gaskets" cx="0.5" cy="0.5" r="0.5">
      <stop offset="0" stop-color="#33415a" stop-opacity="0.34"/>
      <stop offset="1" stop-color="#33415a" stop-opacity="0"/>
    </radialGradient>
    <pattern id="weave-watch-gaskets" width="26" height="26" patternUnits="userSpaceOnUse" patternTransform="rotate(38)">
      <line x1="0" y1="0" x2="0" y2="26" stroke="#33415a" stroke-opacity="0.045" stroke-width="1"/>
    </pattern>
  </defs>
  <rect width="800" height="800" fill="url(#bg-watch-gaskets)"/>
  <rect width="800" height="800" fill="url(#weave-watch-gaskets)"/>
  <rect width="800" height="800" fill="url(#pool-watch-gaskets)"/>
  <rect x="28" y="28" width="744" height="744" rx="18" fill="none" stroke="#33415a" stroke-opacity="0.16"/>
  <ellipse cx="400" cy="605" rx="230" ry="46" fill="url(#shadow-watch-gaskets)"/>
  <g transform="translate(400 390)">
<circle cx="-108" cy="-70" r="150" fill="none" stroke="#788698" stroke-width="22"/>
<circle cx="-108" cy="-70" r="161" fill="none" stroke="#465468" stroke-opacity="0.4" stroke-width="2"/>
<circle cx="-108" cy="-70" r="139" fill="none" stroke="#465468" stroke-opacity="0.4" stroke-width="2"/>
<path d="M-216 -160 a150 150 0 0 1 120 -45" fill="none" stroke="#ffffff" stroke-opacity="0.5" stroke-width="8.8" stroke-linecap="round"/>
<circle cx="96" cy="26" r="186" fill="none" stroke="#788698" stroke-width="26"/>
<circle cx="96" cy="26" r="199" fill="none" stroke="#465468" stroke-opacity="0.4" stroke-width="2"/>
<circle cx="96" cy="26" r="173" fill="none" stroke="#465468" stroke-opacity="0.4" stroke-width="2"/>
<path d="M-37.91999999999999 -85.6 a186 186 0 0 1 148.8 -55.8" fill="none" stroke="#ffffff" stroke-opacity="0.5" stroke-width="10.4" stroke-linecap="round"/>
<circle cx="-38" cy="146" r="108" fill="none" stroke="#788698" stroke-width="17"/>
<circle cx="-38" cy="146" r="116.5" fill="none" stroke="#465468" stroke-opacity="0.4" stroke-width="2"/>
<circle cx="-38" cy="146" r="99.5" fill="none" stroke="#465468" stroke-opacity="0.4" stroke-width="2"/>
<path d="M-115.75999999999999 81.2 a108 108 0 0 1 86.4 -32.4" fill="none" stroke="#ffffff" stroke-opacity="0.5" stroke-width="6.800000000000001" stroke-linecap="round"/>
  </g>
  <g transform="translate(738 746)">
    <rect x="-86" y="-20" width="86" height="34" rx="17" fill="#33415a" fill-opacity="0.1"/>
    <text x="-43" y="3" text-anchor="middle" font-family="Georgia, 'Times New Roman', serif" font-size="15" letter-spacing="2.4" fill="#33415a" fill-opacity="0.72">DEMO</text>
  </g>
</svg>
