<svg xmlns="http://www.w3.org/2000/svg" viewBox="0 0 800 800" width="800" height="800" role="img" aria-label="Illustration of a brown grained leather watch strap. Demo artwork.">
  <defs>
    <linearGradient id="bg-strap-brown-grain" x1="0" y1="0" x2="0.65" y2="1">
      <stop offset="0" stop-color="#faf2ea"/>
      <stop offset="1" stop-color="#e5cfb9"/>
    </linearGradient>
    <radialGradient id="pool-strap-brown-grain" cx="0.38" cy="0.32" r="0.72">
      <stop offset="0" stop-color="#ffffff" stop-opacity="0.85"/>
      <stop offset="1" stop-color="#ffffff" stop-opacity="0"/>
    </radialGradient>
    <radialGradient id="shadow-strap-brown-grain" cx="0.5" cy="0.5" r="0.5">
      <stop offset="0" stop-color="#4a2c14" stop-opacity="0.34"/>
      <stop offset="1" stop-color="#4a2c14" stop-opacity="0"/>
    </radialGradient>
    <pattern id="weave-strap-brown-grain" width="26" height="26" patternUnits="userSpaceOnUse" patternTransform="rotate(38)">
      <line x1="0" y1="0" x2="0" y2="26" stroke="#4a2c14" stroke-opacity="0.045" stroke-width="1"/>
    </pattern>
  </defs>
  <rect width="800" height="800" fill="url(#bg-strap-brown-grain)"/>
  <rect width="800" height="800" fill="url(#weave-strap-brown-grain)"/>
  <rect width="800" height="800" fill="url(#pool-strap-brown-grain)"/>
  <rect x="28" y="28" width="744" height="744" rx="18" fill="none" stroke="#4a2c14" stroke-opacity="0.16"/>
  <ellipse cx="400" cy="605" rx="230" ry="46" fill="url(#shadow-strap-brown-grain)"/>
  <g transform="translate(400 390)">
<defs><clipPath id="strapclip"><path d="M-92 -300 L92 -300 L78 -40 L-78 -40 Z"/><path d="M-78 40 L78 40 L58 320 L-58 320 Z"/></clipPath></defs>
<polygon points="-92.0,-300.0 92.0,-300.0 78.0,-40.0 -78.0,-40.0" fill="#744726"/>
<polygon points="-92.0,-300.0 92.0,-300.0 78.0,-40.0 -78.0,-40.0" fill="none" stroke="#3f2410" stroke-opacity="0.55" stroke-width="3.5"/>
<polygon points="-78.0,40.0 78.0,40.0 58.0,320.0 -58.0,320.0" fill="#744726"/>
<polygon points="-78.0,40.0 78.0,40.0 58.0,320.0 -58.0,320.0" fill="none" stroke="#3f2410" stroke-opacity="0.55" stroke-width="3.5"/>
<g clip-path="url(#strapclip)"><circle cx="-110" cy="-330" r="1.6" fill="#3f2410" fill-opacity="0.2"/><circle cx="27" cy="-241" r="2.3" fill="#3f2410" fill-opacity="0.2"/><circle cx="-56" cy="-152" r="3" fill="#3f2410" fill-opacity="0.2"/><circle cx="81" cy="-63" r="1.6" fill="#3f2410" fill-opacity="0.2"/><circle cx="-2" cy="26" r="2.3" fill="#3f2410" fill-opacity="0.2"/><circle cx="-85" cy="115" r="3" fill="#3f2410" fill-opacity="0.2"/><circle cx="52" cy="204" r="1.6" fill="#3f2410" fill-opacity="0.2"/><circle cx="-31" cy="293" r="2.3" fill="#3f2410" fill-opacity="0.2"/><circle cx="106" cy="-278" r="3" fill="#3f2410" fill-opacity="0.2"/><circle cx="23" cy="-189" r="1.6" fill="#3f2410" fill-opacity="0.2"/><circle cx="-60" cy="-100" r="2.3" fill="#3f2410" fill-opacity="0.2"/><circle cx="77" cy="-11" r="3" fill="#3f2410" fill-opacity="0.2"/><circle cx="-6" cy="78" r="1.6" fill="#3f2410" fill-opacity="0.2"/><circle cx="-89" cy="167" r="2.3" fill="#3f2410" fill-opacity="0.2"/><circle cx="48" cy="256" r="3" fill="#3f2410" fill-opacity="0.2"/><circle cx="-35" cy="-315" r="1.6" fill="#3f2410" fill-opacity="0.2"/><circle cx="102" cy="-226" r="2.3" fill="#3f2410" fill-opacity="0.2"/><circle cx="19" cy="-137" r="3" fill="#3f2410" fill-opacity="0.2"/><circle cx="-64" cy="-48" r="1.6" fill="#3f2410" fill-opacity="0.2"/><circle cx="73" cy="41" r="2.3" fill="#3f2410" fill-opacity="0.2"/><circle cx="-10" cy="130" r="3" fill="#3f2410" fill-opacity="0.2"/><circle cx="-93" cy="219" r="1.6" fill="#3f2410" fill-opacity="0.2"/><circle cx="44" cy="308" r="2.3" fill="#3f2410" fill-opacity="0.2"/><circle cx="-39" cy="-263" r="3" fill="#3f2410" fill-opacity="0.2"/><circle cx="98" cy="-174" r="1.6" fill="#3f2410" fill-opacity="0.2"/><circle cx="15" cy="-85" r="2.3" fill="#3f2410" fill-opacity="0.2"/><circle cx="-68" cy="4" r="3" fill="#3f2410" fill-opacity="0.2"/><circle cx="69" cy="93" r="1.6" fill="#3f2410" fill-opacity="0.2"/><circle cx="-14" cy="182" r="2.3" fill="#3f2410" fill-opacity="0.2"/><circle cx="-97" cy="271" r="3" fill="#3f2410" fill-opacity="0.2"/><circle cx="40" cy="-300" r="1.6" fill="#3f2410" fill-opacity="0.2"/><circle cx="-43" cy="-211" r="2.3" fill="#3f2410" fill-opacity="0.2"/><circle cx="94" cy="-122" r="3" fill="#3f2410" fill-opacity="0.2"/><circle cx="11" cy="-33" r="1.6" fill="#3f2410" fill-opacity="0.2"/><circle cx="-72" cy="56" r="2.3" fill="#3f2410" fill-opacity="0.2"/><circle cx="65" cy="145" r="3" fill="#3f2410" fill-opacity="0.2"/><circle cx="-18" cy="234" r="1.6" fill="#3f2410" fill-opacity="0.2"/><circle cx="-101" cy="323" r="2.3" fill="#3f2410" fill-opacity="0.2"/><circle cx="36" cy="-248" r="3" fill="#3f2410" fill-opacity="0.2"/><circle cx="-47" cy="-159" r="1.6" fill="#3f2410" fill-opacity="0.2"/><circle cx="90" cy="-70" r="2.3" fill="#3f2410" fill-opacity="0.2"/><circle cx="7" cy="19" r="3" fill="#3f2410" fill-opacity="0.2"/><circle cx="-76" cy="108" r="1.6" fill="#3f2410" fill-opacity="0.2"/><circle cx="61" cy="197" r="2.3" fill="#3f2410" fill-opacity="0.2"/><circle cx="-22" cy="286" r="3" fill="#3f2410" fill-opacity="0.2"/><circle cx="-105" cy="-285" r="1.6" fill="#3f2410" fill-opacity="0.2"/><circle cx="32" cy="-196" r="2.3" fill="#3f2410" fill-opacity="0.2"/><circle cx="-51" cy="-107" r="3" fill="#3f2410" fill-opacity="0.2"/><circle cx="86" cy="-18" r="1.6" fill="#3f2410" fill-opacity="0.2"/><circle cx="3" cy="71" r="2.3" fill="#3f2410" fill-opacity="0.2"/><circle cx="-80" cy="160" r="3" fill="#3f2410" fill-opacity="0.2"/><circle cx="57" cy="249" r="1.6" fill="#3f2410" fill-opacity="0.2"/><circle cx="-26" cy="-322" r="2.3" fill="#3f2410" fill-opacity="0.2"/><circle cx="-109" cy="-233" r="3" fill="#3f2410" fill-opacity="0.2"/><circle cx="28" cy="-144" r="1.6" fill="#3f2410" fill-opacity="0.2"/><circle cx="-55" cy="-55" r="2.3" fill="#3f2410" fill-opacity="0.2"/><circle cx="82" cy="34" r="3" fill="#3f2410" fill-opacity="0.2"/><circle cx="-1" cy="123" r="1.6" fill="#3f2410" fill-opacity="0.2"/><circle cx="-84" cy="212" r="2.3" fill="#3f2410" fill-opacity="0.2"/><circle cx="53" cy="301" r="3" fill="#3f2410" fill-opacity="0.2"/><circle cx="-30" cy="-270" r="1.6" fill="#3f2410" fill-opacity="0.2"/><circle cx="107" cy="-181" r="2.3" fill="#3f2410" fill-opacity="0.2"/><circle cx="24" cy="-92" r="3" fill="#3f2410" fill-opacity="0.2"/><circle cx="-59" cy="-3" r="1.6" fill="#3f2410" fill-opacity="0.2"/><circle cx="78" cy="86" r="2.3" fill="#3f2410" fill-opacity="0.2"/><circle cx="-5" cy="175" r="3" fill="#3f2410" fill-opacity="0.2"/><circle cx="-88" cy="264" r="1.6" fill="#3f2410" fill-opacity="0.2"/><circle cx="49" cy="-307" r="2.3" fill="#3f2410" fill-opacity="0.2"/><circle cx="-34" cy="-218" r="3" fill="#3f2410" fill-opacity="0.2"/><circle cx="103" cy="-129" r="1.6" fill="#3f2410" fill-opacity="0.2"/><circle cx="20" cy="-40" r="2.3" fill="#3f2410" fill-opacity="0.2"/><circle cx="-63" cy="49" r="3" fill="#3f2410" fill-opacity="0.2"/><circle cx="74" cy="138" r="1.6" fill="#3f2410" fill-opacity="0.2"/><circle cx="-9" cy="227" r="2.3" fill="#3f2410" fill-opacity="0.2"/><circle cx="-92" cy="316" r="3" fill="#3f2410" fill-opacity="0.2"/><circle cx="45" cy="-255" r="1.6" fill="#3f2410" fill-opacity="0.2"/><circle cx="-38" cy="-166" r="2.3" fill="#3f2410" fill-opacity="0.2"/><circle cx="99" cy="-77" r="3" fill="#3f2410" fill-opacity="0.2"/><circle cx="16" cy="12" r="1.6" fill="#3f2410" fill-opacity="0.2"/><circle cx="-67" cy="101" r="2.3" fill="#3f2410" fill-opacity="0.2"/><circle cx="70" cy="190" r="3" fill="#3f2410" fill-opacity="0.2"/><circle cx="-13" cy="279" r="1.6" fill="#3f2410" fill-opacity="0.2"/><circle cx="-96" cy="-292" r="2.3" fill="#3f2410" fill-opacity="0.2"/><circle cx="41" cy="-203" r="3" fill="#3f2410" fill-opacity="0.2"/><circle cx="-42" cy="-114" r="1.6" fill="#3f2410" fill-opacity="0.2"/><circle cx="95" cy="-25" r="2.3" fill="#3f2410" fill-opacity="0.2"/><circle cx="12" cy="64" r="3" fill="#3f2410" fill-opacity="0.2"/><circle cx="-71" cy="153" r="1.6" fill="#3f2410" fill-opacity="0.2"/><circle cx="66" cy="242" r="2.3" fill="#3f2410" fill-opacity="0.2"/><circle cx="-17" cy="-329" r="3" fill="#3f2410" fill-opacity="0.2"/><circle cx="-100" cy="-240" r="1.6" fill="#3f2410" fill-opacity="0.2"/><circle cx="37" cy="-151" r="2.3" fill="#3f2410" fill-opacity="0.2"/><circle cx="-46" cy="-62" r="3" fill="#3f2410" fill-opacity="0.2"/><circle cx="91" cy="27" r="1.6" fill="#3f2410" fill-opacity="0.2"/><circle cx="8" cy="116" r="2.3" fill="#3f2410" fill-opacity="0.2"/><circle cx="-75" cy="205" r="3" fill="#3f2410" fill-opacity="0.2"/><circle cx="62" cy="294" r="1.6" fill="#3f2410" fill-opacity="0.2"/><circle cx="-21" cy="-277" r="2.3" fill="#3f2410" fill-opacity="0.2"/><circle cx="-104" cy="-188" r="3" fill="#3f2410" fill-opacity="0.2"/><circle cx="33" cy="-99" r="1.6" fill="#3f2410" fill-opacity="0.2"/><circle cx="-50" cy="-10" r="2.3" fill="#3f2410" fill-opacity="0.2"/><circle cx="87" cy="79" r="3" fill="#3f2410" fill-opacity="0.2"/><circle cx="4" cy="168" r="1.6" fill="#3f2410" fill-opacity="0.2"/><circle cx="-79" cy="257" r="2.3" fill="#3f2410" fill-opacity="0.2"/><circle cx="58" cy="-314" r="3" fill="#3f2410" fill-opacity="0.2"/><circle cx="-25" cy="-225" r="1.6" fill="#3f2410" fill-opacity="0.2"/><circle cx="-108" cy="-136" r="2.3" fill="#3f2410" fill-opacity="0.2"/><circle cx="29" cy="-47" r="3" fill="#3f2410" fill-opacity="0.2"/><circle cx="-54" cy="42" r="1.6" fill="#3f2410" fill-opacity="0.2"/><circle cx="83" cy="131" r="2.3" fill="#3f2410" fill-opacity="0.2"/><circle cx="0" cy="220" r="3" fill="#3f2410" fill-opacity="0.2"/><circle cx="-83" cy="309" r="1.6" fill="#3f2410" fill-opacity="0.2"/><circle cx="54" cy="-262" r="2.3" fill="#3f2410" fill-opacity="0.2"/><circle cx="-29" cy="-173" r="3" fill="#3f2410" fill-opacity="0.2"/><circle cx="108" cy="-84" r="1.6" fill="#3f2410" fill-opacity="0.2"/><circle cx="25" cy="5" r="2.3" fill="#3f2410" fill-opacity="0.2"/><circle cx="-58" cy="94" r="3" fill="#3f2410" fill-opacity="0.2"/><circle cx="79" cy="183" r="1.6" fill="#3f2410" fill-opacity="0.2"/><circle cx="-4" cy="272" r="2.3" fill="#3f2410" fill-opacity="0.2"/><circle cx="-87" cy="-299" r="3" fill="#3f2410" fill-opacity="0.2"/><circle cx="50" cy="-210" r="1.6" fill="#3f2410" fill-opacity="0.2"/><circle cx="-33" cy="-121" r="2.3" fill="#3f2410" fill-opacity="0.2"/><circle cx="104" cy="-32" r="3" fill="#3f2410" fill-opacity="0.2"/><circle cx="21" cy="57" r="1.6" fill="#3f2410" fill-opacity="0.2"/><circle cx="-62" cy="146" r="2.3" fill="#3f2410" fill-opacity="0.2"/><circle cx="75" cy="235" r="3" fill="#3f2410" fill-opacity="0.2"/><circle cx="-8" cy="324" r="1.6" fill="#3f2410" fill-opacity="0.2"/><circle cx="-91" cy="-247" r="2.3" fill="#3f2410" fill-opacity="0.2"/><circle cx="46" cy="-158" r="3" fill="#3f2410" fill-opacity="0.2"/><circle cx="-37" cy="-69" r="1.6" fill="#3f2410" fill-opacity="0.2"/><circle cx="100" cy="20" r="2.3" fill="#3f2410" fill-opacity="0.2"/><circle cx="17" cy="109" r="3" fill="#3f2410" fill-opacity="0.2"/><circle cx="-66" cy="198" r="1.6" fill="#3f2410" fill-opacity="0.2"/><circle cx="71" cy="287" r="2.3" fill="#3f2410" fill-opacity="0.2"/><circle cx="-12" cy="-284" r="3" fill="#3f2410" fill-opacity="0.2"/><circle cx="-95" cy="-195" r="1.6" fill="#3f2410" fill-opacity="0.2"/><circle cx="42" cy="-106" r="2.3" fill="#3f2410" fill-opacity="0.2"/><circle cx="-41" cy="-17" r="3" fill="#3f2410" fill-opacity="0.2"/><circle cx="96" cy="72" r="1.6" fill="#3f2410" fill-opacity="0.2"/><circle cx="13" cy="161" r="2.3" fill="#3f2410" fill-opacity="0.2"/><circle cx="-70" cy="250" r="3" fill="#3f2410" fill-opacity="0.2"/><circle cx="67" cy="-321" r="1.6" fill="#3f2410" fill-opacity="0.2"/><circle cx="-16" cy="-232" r="2.3" fill="#3f2410" fill-opacity="0.2"/><circle cx="-99" cy="-143" r="3" fill="#3f2410" fill-opacity="0.2"/><circle cx="38" cy="-54" r="1.6" fill="#3f2410" fill-opacity="0.2"/><circle cx="-45" cy="35" r="2.3" fill="#3f2410" fill-opacity="0.2"/><circle cx="92" cy="124" r="3" fill="#3f2410" fill-opacity="0.2"/><circle cx="9" cy="213" r="1.6" fill="#3f2410" fill-opacity="0.2"/><circle cx="-74" cy="302" r="2.3" fill="#3f2410" fill-opacity="0.2"/><circle cx="63" cy="-269" r="3" fill="#3f2410" fill-opacity="0.2"/><circle cx="-20" cy="-180" r="1.6" fill="#3f2410" fill-opacity="0.2"/><circle cx="-103" cy="-91" r="2.3" fill="#3f2410" fill-opacity="0.2"/><circle cx="34" cy="-2" r="3" fill="#3f2410" fill-opacity="0.2"/><circle cx="-49" cy="87" r="1.6" fill="#3f2410" fill-opacity="0.2"/><circle cx="88" cy="176" r="2.3" fill="#3f2410" fill-opacity="0.2"/><circle cx="5" cy="265" r="3" fill="#3f2410" fill-opacity="0.2"/><circle cx="-78" cy="-306" r="1.6" fill="#3f2410" fill-opacity="0.2"/><circle cx="59" cy="-217" r="2.3" fill="#3f2410" fill-opacity="0.2"/><circle cx="-24" cy="-128" r="3" fill="#3f2410" fill-opacity="0.2"/><circle cx="-107" cy="-39" r="1.6" fill="#3f2410" fill-opacity="0.2"/><circle cx="30" cy="50" r="2.3" fill="#3f2410" fill-opacity="0.2"/><circle cx="-53" cy="139" r="3" fill="#3f2410" fill-opacity="0.2"/><circle cx="84" cy="228" r="1.6" fill="#3f2410" fill-opacity="0.2"/><circle cx="1" cy="317" r="2.3" fill="#3f2410" fill-opacity="0.2"/><circle cx="-82" cy="-254" r="3" fill="#3f2410" fill-opacity="0.2"/><circle cx="55" cy="-165" r="1.6" fill="#3f2410" fill-opacity="0.2"/><circle cx="-28" cy="-76" r="2.3" fill="#3f2410" fill-opacity="0.2"/><circle cx="109" cy="13" r="3" fill="#3f2410" fill-opacity="0.2"/><circle cx="26" cy="102" r="1.6" fill="#3f2410" fill-opacity="0.2"/><circle cx="-57" cy="191" r="2.3" fill="#3f2410" fill-opacity="0.2"/><circle cx="80" cy="280" r="3" fill="#3f2410" fill-opacity="0.2"/><circle cx="-3" cy="-291" r="1.6" fill="#3f2410" fill-opacity="0.2"/><circle cx="-86" cy="-202" r="2.3" fill="#3f2410" fill-opacity="0.2"/><circle cx="51" cy="-113" r="3" fill="#3f2410" fill-opacity="0.2"/><circle cx="-32" cy="-24" r="1.6" fill="#3f2410" fill-opacity="0.2"/><circle cx="105" cy="65" r="2.3" fill="#3f2410" fill-opacity="0.2"/><circle cx="22" cy="154" r="3" fill="#3f2410" fill-opacity="0.2"/><circle cx="-61" cy="243" r="1.6" fill="#3f2410" fill-opacity="0.2"/><circle cx="76" cy="-328" r="2.3" fill="#3f2410" fill-opacity="0.2"/><circle cx="-7" cy="-239" r="3" fill="#3f2410" fill-opacity="0.2"/><circle cx="-90" cy="-150" r="1.6" fill="#3f2410" fill-opacity="0.2"/><circle cx="47" cy="-61" r="2.3" fill="#3f2410" fill-opacity="0.2"/><circle cx="-36" cy="28" r="3" fill="#3f2410" fill-opacity="0.2"/><circle cx="101" cy="117" r="1.6" fill="#3f2410" fill-opacity="0.2"/><circle cx="18" cy="206" r="2.3" fill="#3f2410" fill-opacity="0.2"/><circle cx="-65" cy="295" r="3" fill="#3f2410" fill-opacity="0.2"/><circle cx="72" cy="-276" r="1.6" fill="#3f2410" fill-opacity="0.2"/><circle cx="-11" cy="-187" r="2.3" fill="#3f2410" fill-opacity="0.2"/><circle cx="-94" cy="-98" r="3" fill="#3f2410" fill-opacity="0.2"/><circle cx="43" cy="-9" r="1.6" fill="#3f2410" fill-opacity="0.2"/><circle cx="-40" cy="80" r="2.3" fill="#3f2410" fill-opacity="0.2"/><circle cx="97" cy="169" r="3" fill="#3f2410" fill-opacity="0.2"/><circle cx="14" cy="258" r="1.6" fill="#3f2410" fill-opacity="0.2"/><circle cx="-69" cy="-313" r="2.3" fill="#3f2410" fill-opacity="0.2"/><circle cx="68" cy="-224" r="3" fill="#3f2410" fill-opacity="0.2"/><circle cx="-15" cy="-135" r="1.6" fill="#3f2410" fill-opacity="0.2"/><circle cx="-98" cy="-46" r="2.3" fill="#3f2410" fill-opacity="0.2"/><circle cx="39" cy="43" r="3" fill="#3f2410" fill-opacity="0.2"/><circle cx="-44" cy="132" r="1.6" fill="#3f2410" fill-opacity="0.2"/><circle cx="93" cy="221" r="2.3" fill="#3f2410" fill-opacity="0.2"/><circle cx="10" cy="310" r="3" fill="#3f2410" fill-opacity="0.2"/><circle cx="-73" cy="-261" r="1.6" fill="#3f2410" fill-opacity="0.2"/><circle cx="64" cy="-172" r="2.3" fill="#3f2410" fill-opacity="0.2"/><circle cx="-19" cy="-83" r="3" fill="#3f2410" fill-opacity="0.2"/><circle cx="-102" cy="6" r="1.6" fill="#3f2410" fill-opacity="0.2"/><circle cx="35" cy="95" r="2.3" fill="#3f2410" fill-opacity="0.2"/><circle cx="-48" cy="184" r="3" fill="#3f2410" fill-opacity="0.2"/><circle cx="89" cy="273" r="1.6" fill="#3f2410" fill-opacity="0.2"/><circle cx="6" cy="-298" r="2.3" fill="#3f2410" fill-opacity="0.2"/><circle cx="-77" cy="-209" r="3" fill="#3f2410" fill-opacity="0.2"/><circle cx="60" cy="-120" r="1.6" fill="#3f2410" fill-opacity="0.2"/><circle cx="-23" cy="-31" r="2.3" fill="#3f2410" fill-opacity="0.2"/><circle cx="-106" cy="58" r="3" fill="#3f2410" fill-opacity="0.2"/><circle cx="31" cy="147" r="1.6" fill="#3f2410" fill-opacity="0.2"/><circle cx="-52" cy="236" r="2.3" fill="#3f2410" fill-opacity="0.2"/><circle cx="85" cy="325" r="3" fill="#3f2410" fill-opacity="0.2"/><circle cx="2" cy="-246" r="1.6" fill="#3f2410" fill-opacity="0.2"/><circle cx="-81" cy="-157" r="2.3" fill="#3f2410" fill-opacity="0.2"/><circle cx="56" cy="-68" r="3" fill="#3f2410" fill-opacity="0.2"/><circle cx="-27" cy="21" r="1.6" fill="#3f2410" fill-opacity="0.2"/><circle cx="-110" cy="110" r="2.3" fill="#3f2410" fill-opacity="0.2"/><circle cx="27" cy="199" r="3" fill="#3f2410" fill-opacity="0.2"/><circle cx="-56" cy="288" r="1.6" fill="#3f2410" fill-opacity="0.2"/><circle cx="81" cy="-283" r="2.3" fill="#3f2410" fill-opacity="0.2"/><circle cx="-2" cy="-194" r="3" fill="#3f2410" fill-opacity="0.2"/><circle cx="-85" cy="-105" r="1.6" fill="#3f2410" fill-opacity="0.2"/><circle cx="52" cy="-16" r="2.3" fill="#3f2410" fill-opacity="0.2"/><circle cx="-31" cy="73" r="3" fill="#3f2410" fill-opacity="0.2"/><circle cx="106" cy="162" r="1.6" fill="#3f2410" fill-opacity="0.2"/><circle cx="23" cy="251" r="2.3" fill="#3f2410" fill-opacity="0.2"/><circle cx="-60" cy="-320" r="3" fill="#3f2410" fill-opacity="0.2"/><circle cx="77" cy="-231" r="1.6" fill="#3f2410" fill-opacity="0.2"/><circle cx="-6" cy="-142" r="2.3" fill="#3f2410" fill-opacity="0.2"/><circle cx="-89" cy="-53" r="3" fill="#3f2410" fill-opacity="0.2"/><circle cx="48" cy="36" r="1.6" fill="#3f2410" fill-opacity="0.2"/><circle cx="-35" cy="125" r="2.3" fill="#3f2410" fill-opacity="0.2"/><circle cx="102" cy="214" r="3" fill="#3f2410" fill-opacity="0.2"/><circle cx="19" cy="303" r="1.6" fill="#3f2410" fill-opacity="0.2"/><circle cx="-64" cy="-268" r="2.3" fill="#3f2410" fill-opacity="0.2"/><circle cx="73" cy="-179" r="3" fill="#3f2410" fill-opacity="0.2"/><circle cx="-10" cy="-90" r="1.6" fill="#3f2410" fill-opacity="0.2"/><circle cx="-93" cy="-1" r="2.3" fill="#3f2410" fill-opacity="0.2"/><circle cx="44" cy="88" r="3" fill="#3f2410" fill-opacity="0.2"/><circle cx="-39" cy="177" r="1.6" fill="#3f2410" fill-opacity="0.2"/><circle cx="98" cy="266" r="2.3" fill="#3f2410" fill-opacity="0.2"/><circle cx="15" cy="-305" r="3" fill="#3f2410" fill-opacity="0.2"/><circle cx="-68" cy="-216" r="1.6" fill="#3f2410" fill-opacity="0.2"/><circle cx="69" cy="-127" r="2.3" fill="#3f2410" fill-opacity="0.2"/><circle cx="-14" cy="-38" r="3" fill="#3f2410" fill-opacity="0.2"/><circle cx="-97" cy="51" r="1.6" fill="#3f2410" fill-opacity="0.2"/><circle cx="40" cy="140" r="2.3" fill="#3f2410" fill-opacity="0.2"/><circle cx="-43" cy="229" r="3" fill="#3f2410" fill-opacity="0.2"/><circle cx="94" cy="318" r="1.6" fill="#3f2410" fill-opacity="0.2"/><circle cx="11" cy="-253" r="2.3" fill="#3f2410" fill-opacity="0.2"/><circle cx="-72" cy="-164" r="3" fill="#3f2410" fill-opacity="0.2"/><circle cx="65" cy="-75" r="1.6" fill="#3f2410" fill-opacity="0.2"/><circle cx="-18" cy="14" r="2.3" fill="#3f2410" fill-opacity="0.2"/><circle cx="-101" cy="103" r="3" fill="#3f2410" fill-opacity="0.2"/><circle cx="36" cy="192" r="1.6" fill="#3f2410" fill-opacity="0.2"/><circle cx="-47" cy="281" r="2.3" fill="#3f2410" fill-opacity="0.2"/></g>
<line x1="-66" y1="-290" x2="-66" y2="-276" stroke="#e0c5ac" stroke-opacity="0.85" stroke-width="5" stroke-linecap="round"/><line x1="-66" y1="-264" x2="-66" y2="-250" stroke="#e0c5ac" stroke-opacity="0.85" stroke-width="5" stroke-linecap="round"/><line x1="-66" y1="-238" x2="-66" y2="-224" stroke="#e0c5ac" stroke-opacity="0.85" stroke-width="5" stroke-linecap="round"/><line x1="-66" y1="-212" x2="-66" y2="-198" stroke="#e0c5ac" stroke-opacity="0.85" stroke-width="5" stroke-linecap="round"/><line x1="-66" y1="-186" x2="-66" y2="-172" stroke="#e0c5ac" stroke-opacity="0.85" stroke-width="5" stroke-linecap="round"/><line x1="-66" y1="-160" x2="-66" y2="-146" stroke="#e0c5ac" stroke-opacity="0.85" stroke-width="5" stroke-linecap="round"/><line x1="-66" y1="-134" x2="-66" y2="-120" stroke="#e0c5ac" stroke-opacity="0.85" stroke-width="5" stroke-linecap="round"/><line x1="-66" y1="-108" x2="-66" y2="-94" stroke="#e0c5ac" stroke-opacity="0.85" stroke-width="5" stroke-linecap="round"/><line x1="-66" y1="-82" x2="-66" y2="-68" stroke="#e0c5ac" stroke-opacity="0.85" stroke-width="5" stroke-linecap="round"/><line x1="-66" y1="-56" x2="-66" y2="-42" stroke="#e0c5ac" stroke-opacity="0.85" stroke-width="5" stroke-linecap="round"/>
<line x1="66" y1="-290" x2="66" y2="-276" stroke="#e0c5ac" stroke-opacity="0.85" stroke-width="5" stroke-linecap="round"/><line x1="66" y1="-264" x2="66" y2="-250" stroke="#e0c5ac" stroke-opacity="0.85" stroke-width="5" stroke-linecap="round"/><line x1="66" y1="-238" x2="66" y2="-224" stroke="#e0c5ac" stroke-opacity="0.85" stroke-width="5" stroke-linecap="round"/><line x1="66" y1="-212" x2="66" y2="-198" stroke="#e0c5ac" stroke-opacity="0.85" stroke-width="5" stroke-linecap="round"/><line x1="66" y1="-186" x2="66" y2="-172" stroke="#e0c5ac" stroke-opacity="0.85" stroke-width="5" stroke-linecap="round"/><line x1="66" y1="-160" x2="66" y2="-146" stroke="#e0c5ac" stroke-opacity="0.85" stroke-width="5" stroke-linecap="round"/><line x1="66" y1="-134" x2="66" y2="-120" stroke="#e0c5ac" stroke-opacity="0.85" stroke-width="5" stroke-linecap="round"/><line x1="66" y1="-108" x2="66" y2="-94" stroke="#e0c5ac" stroke-opacity="0.85" stroke-width="5" stroke-linecap="round"/><line x1="66" y1="-82" x2="66" y2="-68" stroke="#e0c5ac" stroke-opacity="0.85" stroke-width="5" stroke-linecap="round"/><line x1="66" y1="-56" x2="66" y2="-42" stroke="#e0c5ac" stroke-opacity="0.85" stroke-width="5" stroke-linecap="round"/>
<line x1="-54" y1="54" x2="-54" y2="68" stroke="#e0c5ac" stroke-opacity="0.85" stroke-width="5" stroke-linecap="round"/><line x1="-54" y1="80" x2="-54" y2="94" stroke="#e0c5ac" stroke-opacity="0.85" stroke-width="5" stroke-linecap="round"/><line x1="-54" y1="106" x2="-54" y2="120" stroke="#e0c5ac" stroke-opacity="0.85" stroke-width="5" stroke-linecap="round"/><line x1="-54" y1="132" x2="-54" y2="146" stroke="#e0c5ac" stroke-opacity="0.85" stroke-width="5" stroke-linecap="round"/><line x1="-54" y1="158" x2="-54" y2="172" stroke="#e0c5ac" stroke-opacity="0.85" stroke-width="5" stroke-linecap="round"/><line x1="-54" y1="184" x2="-54" y2="198" stroke="#e0c5ac" stroke-opacity="0.85" stroke-width="5" stroke-linecap="round"/><line x1="-54" y1="210" x2="-54" y2="224" stroke="#e0c5ac" stroke-opacity="0.85" stroke-width="5" stroke-linecap="round"/><line x1="-54" y1="236" x2="-54" y2="250" stroke="#e0c5ac" stroke-opacity="0.85" stroke-width="5" stroke-linecap="round"/><line x1="-54" y1="262" x2="-54" y2="276" stroke="#e0c5ac" stroke-opacity="0.85" stroke-width="5" stroke-linecap="round"/><line x1="-54" y1="288" x2="-54" y2="302" stroke="#e0c5ac" stroke-opacity="0.85" stroke-width="5" stroke-linecap="round"/>
<line x1="54" y1="54" x2="54" y2="68" stroke="#e0c5ac" stroke-opacity="0.85" stroke-width="5" stroke-linecap="round"/><line x1="54" y1="80" x2="54" y2="94" stroke="#e0c5ac" stroke-opacity="0.85" stroke-width="5" stroke-linecap="round"/><line x1="54" y1="106" x2="54" y2="120" stroke="#e0c5ac" stroke-opacity="0.85" stroke-width="5" stroke-linecap="round"/><line x1="54" y1="132" x2="54" y2="146" stroke="#e0c5ac" stroke-opacity="0.85" stroke-width="5" stroke-linecap="round"/><line x1="54" y1="158" x2="54" y2="172" stroke="#e0c5ac" stroke-opacity="0.85" stroke-width="5" stroke-linecap="round"/><line x1="54" y1="184" x2="54" y2="198" stroke="#e0c5ac" stroke-opacity="0.85" stroke-width="5" stroke-linecap="round"/><line x1="54" y1="210" x2="54" y2="224" stroke="#e0c5ac" stroke-opacity="0.85" stroke-width="5" stroke-linecap="round"/><line x1="54" y1="236" x2="54" y2="250" stroke="#e0c5ac" stroke-opacity="0.85" stroke-width="5" stroke-linecap="round"/><line x1="54" y1="262" x2="54" y2="276" stroke="#e0c5ac" stroke-opacity="0.85" stroke-width="5" stroke-linecap="round"/><line x1="54" y1="288" x2="54" y2="302" stroke="#e0c5ac" stroke-opacity="0.85" stroke-width="5" stroke-linecap="round"/>
<rect x="-104" y="-322" width="208" height="16" rx="8" fill="#afb9c6" stroke="#465468" stroke-opacity="0.5" stroke-width="2.6"/>
<g transform="translate(0 -12)"><rect x="-96" y="-40" width="192" height="80" rx="16" fill="none" stroke="#8d9bad" stroke-width="15"/><rect x="-96" y="-40" width="192" height="80" rx="16" fill="none" stroke="#465468" stroke-opacity="0.45" stroke-width="3"/><line x1="0" y1="-32" x2="0" y2="32" stroke="#8d9bad" stroke-width="11"/><path d="M0 0 L74 -8" stroke="#8d9bad" stroke-width="9" stroke-linecap="round"/></g>
<ellipse cx="0" cy="150" rx="10" ry="12" fill="#3f2410" fill-opacity="0.55"/>
<ellipse cx="0" cy="188" rx="10" ry="12" fill="#3f2410" fill-opacity="0.55"/>
<ellipse cx="0" cy="226" rx="10" ry="12" fill="#3f2410" fill-opacity="0.55"/>
<ellipse cx="0" cy="264" rx="10" ry="12" fill="#3f2410" fill-opacity="0.55"/>
<ellipse cx="0" cy="302" rx="10" ry="12" fill="#3f2410" fill-opacity="0.55"/>
  </g>
  <g transform="translate(738 746)">
    <rect x="-86" y="-20" width="86" height="34" rx="17" fill="#4a2c14" fill-opacity="0.1"/>
    <text x="-43" y="3" text-anchor="middle" font-family="Georgia, 'Times New Roman', serif" font-size="15" letter-spacing="2.4" fill="#4a2c14" fill-opacity="0.72">DEMO</text>
  </g>
</svg>
